<svg width="121" height="40" viewBox="0 0 121 40" fill="none" xmlns="http://www.w3.org/2000/svg">
<path d="M0.539062 31V2.5625H9.28906C11.7891 2.5625 14.0221 3.12891 15.9883 4.26172C17.9674 5.38151 19.5104 6.98307 20.6172 9.06641C21.724 11.1367 22.2773 13.4935 22.2773 16.1367V17.4453C22.2773 20.0885 21.7305 22.4388 20.6367 24.4961C19.556 26.5534 18.026 28.1484 16.0469 29.2812C14.0677 30.4141 11.8346 30.987 9.34766 31H0.539062ZM6.39844 7.30859V26.293H9.23047C11.5221 26.293 13.2734 25.5443 14.4844 24.0469C15.6953 22.5495 16.3138 20.4076 16.3398 17.6211V16.1172C16.3398 13.2266 15.7409 11.0391 14.543 9.55469C13.3451 8.05729 11.5938 7.30859 9.28906 7.30859H6.39844ZM35.9102 31.3906C32.8112 31.3906 30.2852 30.4401 28.332 28.5391C26.3919 26.638 25.4219 24.1055 25.4219 20.9414V20.3945C25.4219 18.2721 25.832 16.3776 26.6523 14.7109C27.4727 13.0312 28.6315 11.7422 30.1289 10.8438C31.6393 9.93229 33.3581 9.47656 35.2852 9.47656C38.1758 9.47656 40.4479 10.388 42.1016 12.2109C43.7682 14.0339 44.6016 16.6185 44.6016 19.9648V22.2695H31.1445C31.3268 23.6497 31.8737 24.7565 32.7852 25.5898C33.7096 26.4232 34.875 26.8398 36.2812 26.8398C38.4557 26.8398 40.1549 26.0521 41.3789 24.4766L44.1523 27.582C43.306 28.7799 42.1602 29.7174 40.7148 30.3945C39.2695 31.0586 37.668 31.3906 35.9102 31.3906ZM35.2656 14.0469C34.1458 14.0469 33.2344 14.4245 32.5312 15.1797C31.8411 15.9349 31.3984 17.0156 31.2031 18.4219H39.0547V17.9727C39.0286 16.7227 38.6901 15.7591 38.0391 15.082C37.388 14.3919 36.4635 14.0469 35.2656 14.0469ZM53.7812 31H48.1172V1H53.7812V31ZM65.207 4.67188V9.86719H68.8203V14.0078H65.207V24.5547C65.207 25.3359 65.3568 25.8958 65.6562 26.2344C65.9557 26.5729 66.5286 26.7422 67.375 26.7422C68 26.7422 68.5534 26.6966 69.0352 26.6055V30.8828C67.9284 31.2214 66.7891 31.3906 65.6172 31.3906C61.6589 31.3906 59.6406 29.3919 59.5625 25.3945V14.0078H56.4766V9.86719H59.5625V4.67188H65.207ZM77.9219 31H72.2578V9.86719H77.9219V31ZM71.9258 4.39844C71.9258 3.55208 72.2057 2.85547 72.7656 2.30859C73.3385 1.76172 74.1133 1.48828 75.0898 1.48828C76.0534 1.48828 76.8216 1.76172 77.3945 2.30859C77.9674 2.85547 78.2539 3.55208 78.2539 4.39844C78.2539 5.25781 77.9609 5.96094 77.375 6.50781C76.8021 7.05469 76.0404 7.32812 75.0898 7.32812C74.1393 7.32812 73.3711 7.05469 72.7852 6.50781C72.2122 5.96094 71.9258 5.25781 71.9258 4.39844ZM84.1328 31V14.0078H80.9883V9.86719H84.1328V8.07031C84.1328 5.70052 84.8099 3.86458 86.1641 2.5625C87.5312 1.2474 89.4388 0.589844 91.8867 0.589844C92.668 0.589844 93.625 0.720052 94.7578 0.980469L94.6992 5.35547C94.2305 5.23828 93.6576 5.17969 92.9805 5.17969C90.8581 5.17969 89.7969 6.17578 89.7969 8.16797V9.86719H93.9961V14.0078H89.7969V31H84.1328ZM104.816 23.0117L108.723 9.86719H114.777L106.281 34.2812L105.812 35.3945C104.549 38.1549 102.466 39.5352 99.5625 39.5352C98.7422 39.5352 97.9089 39.4115 97.0625 39.1641V34.8867L97.9219 34.9062C98.9896 34.9062 99.7839 34.7435 100.305 34.418C100.839 34.0924 101.255 33.5521 101.555 32.7969L102.219 31.0586L94.8164 9.86719H100.891L104.816 23.0117ZM114.016 28.2266C114.016 27.3281 114.315 26.599 114.914 26.0391C115.526 25.4792 116.288 25.1992 117.199 25.1992C118.124 25.1992 118.885 25.4792 119.484 26.0391C120.096 26.599 120.402 27.3281 120.402 28.2266C120.402 29.112 120.103 29.8346 119.504 30.3945C118.905 30.9414 118.137 31.2148 117.199 31.2148C116.275 31.2148 115.513 30.9414 114.914 30.3945C114.315 29.8346 114.016 29.112 114.016 28.2266Z" fill="white"/>
</svg>
